<!DOCTYPE svg PUBLIC "-//W3C//DTD SVG 1.1//EN" "http://www.w3.org/Graphics/SVG/1.1/DTD/svg11.dtd">
<!-- Uploaded to: SVG Repo, www.svgrepo.com, Transformed by: SVG Repo Mixer Tools -->
<svg fill="#da9501" width="64px" height="64px" viewBox="-100 -100 1200.00 1200.00" xmlns="http://www.w3.org/2000/svg" stroke="#da9501">
<g id="SVGRepo_bgCarrier" stroke-width="0">
<rect x="-100" y="-100" width="1200.00" height="1200.00" rx="0" fill="#fbdf93" strokewidth="0"/>
</g>
<g id="SVGRepo_tracerCarrier" stroke-linecap="round" stroke-linejoin="round"/>
<g id="SVGRepo_iconCarrier">
<path d="M244 416q-35 0-59.5 24.5T160 500t24.5 59.5T244 584t59.5-24.5T328 500t-24.5-59.5T244 416zm256 0q-35 0-59.5 24.5T416 500t24.5 59.5 59 24.5 59.5-24.5 25-59.5-25-59.5-60-24.5h1zm256 0q-35 0-59.5 24.5T672 500t24.5 59.5T756 584t59.5-24.5T840 500t-24.5-59.5T756 416z"/>
</g>
</svg>